<?xml version="1.0" standalone="no"?>
<!DOCTYPE svg PUBLIC "-//W3C//DTD SVG 20010904//EN"
 "http://www.w3.org/TR/2001/REC-SVG-20010904/DTD/svg10.dtd">
<svg version="1.0" xmlns="http://www.w3.org/2000/svg"
 width="528.000000pt" height="528.000000pt" viewBox="0 0 528.000000 528.000000"
 preserveAspectRatio="xMidYMid meet">
<metadata>
Created by potrace 1.11, written by Peter Selinger 2001-2013
</metadata>
<g transform="translate(0.000000,528.000000) scale(0.100000,-0.100000)"
fill="#000000" stroke="none">
<path d="M2034 3430 c-104 -28 -172 -83 -219 -178 -30 -59 -30 -94 0 -98 11
-1 40 -6 65 -10 25 -4 59 -8 75 -10 17 -1 44 -5 60 -8 17 -3 55 -8 85 -12 30
-3 66 -7 80 -10 24 -4 199 -17 250 -18 23 -1 24 2 21 48 -12 205 -218 351
-417 296z"/>
<path d="M3167 3444 c-1 -2 -17 -6 -35 -9 -115 -20 -233 -133 -257 -245 -20
-96 -16 -111 28 -105 18 2 70 6 117 10 47 3 101 8 120 10 19 2 55 6 80 9 25 2
63 7 85 11 42 6 140 22 189 30 37 5 39 8 32 42 -21 93 -124 200 -219 228 -48
14 -134 25 -140 19z"/>
<path d="M385 3293 c-50 -10 -96 -38 -115 -70 -70 -118 42 -221 390 -358 80
-31 154 -60 165 -64 11 -5 45 -18 75 -29 260 -97 391 -156 519 -232 107 -63
211 -153 245 -214 66 -114 59 -326 -17 -527 -26 -68 -76 -169 -103 -206 l-16
-23 1131 0 1132 0 -19 28 c-49 69 -126 247 -138 322 -4 24 -8 43 -19 100 -11
52 -5 187 10 235 21 67 32 85 90 146 92 96 267 198 505 294 63 25 124 50 135
54 11 5 58 23 105 40 47 17 99 36 115 43 17 6 32 12 35 13 3 1 18 7 33 13 16
7 30 12 32 12 5 0 99 43 191 86 48 23 124 73 151 99 22 23 53 80 53 99 0 38
-23 83 -54 103 -48 33 -99 42 -204 38 -83 -3 -300 -35 -354 -51 -10 -3 -28 -7
-40 -9 -13 -3 -144 -32 -291 -65 -148 -33 -285 -63 -305 -66 -20 -3 -39 -7
-42 -9 -3 -2 -26 -6 -50 -10 -25 -3 -61 -10 -80 -15 -31 -8 -81 -17 -145 -25
-11 -2 -47 -8 -80 -14 -33 -6 -82 -13 -110 -16 -27 -3 -59 -7 -70 -10 -11 -2
-51 -7 -90 -10 -38 -3 -80 -8 -93 -10 -131 -22 -636 -22 -806 0 -16 2 -59 6
-95 10 -36 3 -81 8 -98 11 -18 2 -50 6 -70 9 -72 10 -338 55 -383 65 -25 6
-56 13 -69 15 -44 8 -264 56 -326 70 -145 34 -342 76 -471 100 -127 24 -309
38 -359 28z m2431 -701 c53 -27 109 -85 142 -147 24 -44 27 -61 27 -145 0 -85
-3 -101 -28 -149 -115 -218 -407 -250 -557 -60 -107 136 -96 325 26 443 107
104 256 126 390 58z"/>
</g>
</svg>
