<svg id="Layer_1" data-name="Layer 1" xmlns="http://www.w3.org/2000/svg" viewBox="0 0 268.92 104.47"><title>logo_field2</title><path d="M71.48,104.47c9.52-13.24,13.07-34,7.3-42.66C63.24,38.4-4.71,31.3.26,14,5.57-4.52,67.13,26.68,134.46,26.68S263.35-4.52,268.66,14c5,17.33-63,24.43-78.53,47.84-5.76,8.68-2.21,29.42,7.31,42.66Zm63-59.39a18.74,18.74,0,1,0,18.73,18.74A18.74,18.74,0,0,0,134.46,45.08Z"/><path d="M122.93,18.74a18.73,18.73,0,0,0-37.21-3.09A310.15,310.15,0,0,0,122.87,20C122.9,19.56,122.93,19.15,122.93,18.74Z"/><path d="M164.74,0A18.74,18.74,0,0,0,146,18.74c0,.41,0,.81.06,1.22a310.27,310.27,0,0,0,37.15-4.31A18.73,18.73,0,0,0,164.74,0Z"/></svg>